<svg width="522" height="105" viewBox="0 0 522 105" fill="none" xmlns="http://www.w3.org/2000/svg">
<path d="M48.6097 2.27568L58.6881 12.3541C59.3161 12.9821 59.3161 14.0018 58.6881 14.6298L47.4718 25.8461C46.8438 26.4741 45.8241 26.4741 45.1961 25.8461L33.9799 14.6298C33.3519 14.0018 33.3519 12.9821 33.9799 12.3541L44.0583 2.27569C45.3143 1.01969 47.3537 1.01971 48.6097 2.27568Z" fill="white"/>
<path d="M75.7745 29.4408L64.5583 18.2245C63.9298 17.5961 62.911 17.5961 62.2826 18.2245L51.0663 29.4408C50.4379 30.0692 50.4379 31.0881 51.0663 31.7165L62.2826 42.9328C62.911 43.5612 63.9298 43.5612 64.5583 42.9328L75.7745 31.7165C76.403 31.0881 76.403 30.0692 75.7745 29.4408Z" fill="#4BFFB6"/>
<path d="M58.6871 46.5283L47.4709 35.312C46.8424 34.6836 45.8236 34.6836 45.1952 35.312L33.9789 46.5283C33.3505 47.1567 33.3505 48.1756 33.9789 48.804L45.1952 60.0203C45.8236 60.6487 46.8424 60.6487 47.4709 60.0203L58.6871 48.804C59.3156 48.1756 59.3156 47.1567 58.6871 46.5283Z" fill="#4BFFB6"/>
<path d="M81.6457 35.312L91.7241 45.3905C92.9801 46.6465 92.9801 48.6859 91.7241 49.9419L81.6457 60.0203C81.0177 60.6483 79.998 60.6483 79.37 60.0203L68.1537 48.804C67.5257 48.176 67.5257 47.1563 68.1537 46.5283L79.37 35.312C79.998 34.6841 81.0177 34.6841 81.6457 35.312V35.312Z" fill="#4BFFB6"/>
<path d="M75.7745 63.6157L64.5583 52.3994C63.9298 51.771 62.911 51.771 62.2826 52.3994L51.0663 63.6157C50.4379 64.2441 50.4379 65.263 51.0663 65.8914L62.2826 77.1077C62.911 77.7361 63.9298 77.7361 64.5583 77.1077L75.7745 65.8914C76.403 65.263 76.403 64.2441 75.7745 63.6157Z" fill="#4BFFB6"/>
<path d="M26.7887 46.5289L41.6005 31.7172C42.2289 31.0888 42.2289 30.0699 41.6005 29.4415L30.3842 18.2252C29.7557 17.5968 28.7369 17.5968 28.1085 18.2252L12.1589 34.1748L0.942622 45.3911C-0.314207 46.6479 -0.314207 48.6856 0.942622 49.9424L12.1589 61.1587L44.0574 93.0572C45.3142 94.314 47.3519 94.314 48.6088 93.0572L58.6872 82.9788C59.3156 82.3504 59.3156 81.3315 58.6872 80.7031L26.7887 48.8046C26.1603 48.1762 26.1603 47.1574 26.7887 46.5289V46.5289Z" fill="white"/>
<path d="M145.739 23.0368H125V12.0002H179.311V23.0368H158.521V81.814H145.739V23.0368H145.739Z" fill="white"/>
<path d="M235.965 81.814H223.388V53.3752C223.388 50.5005 223.08 48.0965 222.464 46.1626C221.848 44.2296 220.95 42.672 219.769 41.4913C218.588 40.3105 217.151 39.4723 215.457 38.9761C213.763 38.4801 211.82 38.2314 209.631 38.2314C207.611 38.2314 205.721 38.5909 203.958 39.3094C202.195 40.0284 200.673 41.0547 199.39 42.3895C198.106 43.7243 197.096 45.3244 196.361 47.1892C195.625 49.0549 195.257 51.1164 195.257 53.3751V81.8653H182.783V12.0001H195.206L195.155 33.8169C197.208 32.0034 199.689 30.4804 202.598 29.2483C205.506 28.0161 208.655 27.4003 212.043 27.4003C216.15 27.4003 219.709 27.9648 222.721 29.0942C225.732 30.2237 228.222 31.8839 230.19 34.0737C232.157 36.2643 233.612 38.9592 234.553 42.1585C235.494 45.3589 235.965 49.0292 235.965 53.1698V81.814V81.814Z" fill="white"/>
<path d="M243.955 28.9915H256.531V81.8139H243.955V28.9915Z" fill="white"/>
<path d="M320.167 81.8139H307.59V53.6315C307.59 50.8258 307.282 48.4471 306.666 46.4964C306.05 44.5457 305.178 42.9545 304.048 41.7224C302.919 40.4903 301.541 39.6008 299.916 39.0532C298.29 38.5059 296.468 38.2315 294.449 38.2315C292.258 38.2315 290.247 38.6342 288.417 39.4379C286.586 40.2424 285.003 41.3717 283.669 42.8261C282.334 44.2809 281.299 46.0086 280.563 48.0106C279.827 50.0126 279.459 52.212 279.459 54.6069V81.8139H266.985V28.9915H277.149L278.073 34.3304C279.168 33.3727 280.4 32.4744 281.769 31.6351C283.138 30.7969 284.601 30.0615 286.158 29.428C287.975 28.6892 289.897 28.1368 291.925 27.7705C293.349 27.5133 294.802 27.4001 296.25 27.4003C300.355 27.4007 303.912 27.974 306.923 29.1198C309.934 30.2669 312.424 31.9432 314.392 34.1507C316.36 36.3578 317.814 39.0788 318.755 42.3125C319.696 45.5467 320.167 49.2346 320.167 53.3751V81.8138L320.167 81.8139Z" fill="white"/>
<path d="M324.255 55.4286C324.255 51.5617 324.93 47.9255 326.283 44.5201C327.634 41.115 329.55 38.1468 332.032 35.6135C334.513 33.0814 337.49 31.0794 340.964 29.6074C344.437 28.1365 348.296 27.4003 352.54 27.4003C354.593 27.4003 356.535 27.6057 358.366 28.0162C360.197 28.427 361.908 28.9835 363.5 29.6844C365.091 30.3865 366.554 31.2078 367.888 32.1486C369.223 33.0903 370.404 34.0736 371.431 35.1003L372.406 28.9915H382.57V76.8345C382.57 80.4967 382.005 83.9957 380.876 87.3322C379.747 90.6691 378.027 93.5952 375.717 96.1104C373.407 98.6256 370.498 100.628 366.99 102.117C363.482 103.605 359.332 104.349 354.542 104.349C349.922 104.349 345.943 103.733 342.607 102.501C339.27 101.27 336.515 99.6779 334.342 97.7273C332.168 95.7766 330.517 93.5952 329.388 91.1823C328.259 88.7699 327.574 86.3826 327.335 84.0215L339.296 83.9701C339.672 85.2701 340.253 86.5191 341.041 87.7175C341.828 88.9152 342.846 89.976 344.095 90.9003C345.344 91.8243 346.824 92.5597 348.536 93.1074C350.247 93.6547 352.232 93.9287 354.49 93.9287C357.776 93.9287 360.445 93.3642 362.499 92.2347C364.552 91.1053 366.151 89.702 367.298 88.0256C368.444 86.3482 369.223 84.5772 369.634 82.7124C370.044 80.8475 370.25 79.1624 370.25 77.6559V75.2948C369.154 76.3215 367.94 77.28 366.605 78.1695C365.27 79.0597 363.815 79.8377 362.242 80.5049C360.667 81.1725 358.973 81.7034 357.16 82.0965C355.345 82.4893 353.429 82.6867 351.41 82.6867C347.475 82.6867 343.847 81.9938 340.528 80.6076C337.208 79.2219 334.342 77.3145 331.929 74.884C329.516 72.4546 327.634 69.5711 326.283 66.2342C324.93 62.8977 324.255 59.2964 324.255 55.4287L324.255 55.4286ZM336.781 55.3773C336.781 57.9101 337.225 60.2372 338.115 62.3584C339.004 64.4808 340.22 66.3031 341.76 67.8258C343.3 69.3488 345.097 70.5295 347.15 71.3677C349.203 72.2066 351.41 72.6255 353.772 72.6255C356.099 72.6255 358.289 72.2065 360.343 71.3677C362.396 70.5295 364.184 69.3488 365.707 67.8258C367.229 66.3031 368.436 64.4889 369.326 62.3841C370.216 60.2794 370.661 57.9439 370.661 55.3773C370.661 52.8793 370.216 50.5776 369.326 48.4729C368.436 46.3682 367.221 44.5635 365.682 43.0569C364.141 41.5515 362.345 40.3708 360.291 39.515C358.238 38.66 356.048 38.2316 353.721 38.2316C351.359 38.2316 349.143 38.6512 347.073 39.4893C345.002 40.3283 343.205 41.509 341.683 43.0313C340.16 44.5547 338.962 46.3682 338.089 48.4729C337.217 50.5776 336.781 52.8793 336.781 55.3773H336.781Z" fill="white"/>
<path d="M399.184 65.9007C399.217 66.8936 399.517 67.8345 400.082 68.7241C400.647 69.6143 401.408 70.3842 402.366 71.0338C403.324 71.6845 404.436 72.1977 405.703 72.574C406.969 72.9508 408.338 73.1385 409.81 73.1385C413.779 73.1385 416.705 72.5483 418.588 71.3676C420.469 70.1868 421.411 68.5876 421.411 66.5679C421.411 65.4385 421.069 64.4977 420.385 63.7445C419.7 62.9923 418.707 62.3583 417.407 61.8452C416.106 61.3316 414.515 60.8786 412.633 60.4847C410.751 60.0919 408.612 59.6722 406.216 59.2272C405.018 59.0563 403.761 58.834 402.443 58.5596C401.126 58.2864 399.817 57.9181 398.516 57.4559C397.216 56.9941 395.975 56.4035 394.795 55.685C393.614 54.9664 392.57 54.0857 391.664 53.0413C390.756 51.9978 390.029 50.7488 389.482 49.294C388.934 47.8395 388.661 46.12 388.661 44.1348C388.661 41.6709 389.105 39.4209 389.995 37.3844C390.884 35.349 392.271 33.5857 394.153 32.0972C396.035 30.6083 398.431 29.4536 401.34 28.632C404.248 27.8107 407.722 27.4003 411.761 27.4003C414.943 27.4003 417.809 27.8107 420.359 28.632C422.908 29.4537 425.073 30.6003 426.853 32.0716C428.632 33.5433 430.001 35.3054 430.96 37.3588C431.917 39.4122 432.397 41.6542 432.397 44.0835L419.923 44.0322C419.786 42.1842 418.913 40.662 417.305 39.4635C415.696 38.2659 413.557 37.6669 410.888 37.6669C409.143 37.6669 407.654 37.8466 406.422 38.2057C405.19 38.5652 404.18 39.0362 403.393 39.6176C402.606 40.1998 402.024 40.8754 401.648 41.6453C401.271 42.4153 401.083 43.2108 401.083 44.0321C401.083 44.9906 401.34 45.7954 401.853 46.445C402.367 47.0953 403.137 47.6434 404.163 48.0875C405.19 48.5328 406.49 48.9088 408.065 49.217C409.639 49.5251 411.487 49.7991 413.609 50.0382C416.175 50.449 418.708 50.9542 421.206 51.5527C423.704 52.1517 425.929 53.0156 427.88 54.145C429.83 55.2744 431.404 56.7629 432.602 58.6109C433.8 60.4589 434.399 62.838 434.399 65.7465C434.399 68.7239 433.8 71.3161 432.602 73.5236C431.404 75.7307 429.71 77.5706 427.52 79.0419C425.33 80.5136 422.695 81.6173 419.615 82.3527C416.535 83.0885 413.112 83.4565 409.348 83.4565C405.584 83.4565 402.298 82.9345 399.492 81.8909C396.685 80.8474 394.35 79.4869 392.485 77.8098C390.619 76.1336 389.225 74.2511 388.301 72.1631C387.377 70.076 386.915 67.9713 386.915 65.8493L399.184 65.9006L399.184 65.9007Z" fill="white"/>
<path d="M438.436 12.0002H451.217V81.8141H438.436V12.0002Z" fill="white"/>
<path d="M487.749 36.4862L504.638 12.0002H519.678L495.757 45.3158L521.886 81.8141H506.742L487.749 54.1966L468.755 81.8141H453.663L479.741 45.3158L455.819 12.0002H470.911L487.749 36.4862H487.749Z" fill="white"/>
<path d="M254.3 12H246.187C244.954 12 243.955 12.9993 243.955 14.232V22.3452C243.955 23.5779 244.954 24.5771 246.187 24.5771H254.3C255.533 24.5771 256.532 23.5779 256.532 22.3452V14.232C256.532 12.9993 255.533 12 254.3 12Z" fill="white"/>
</svg>
